%
M48
M72
T01C0.01969
T02C0.02362
T03C0.03200
T04C0.04000
T05C0.04700
%
T01
X55950Y25012
X97200Y31262
X85638Y58762
X70638Y58762
X57200Y73763
X75950Y76263
X90950Y82513
X155325Y65325
T02
X155638Y47512
X152200Y43762
X134075Y17200
X70638Y43762
X70638Y48762
X70638Y53762
T03
X99700Y85013
X109700Y85013
X119700Y85013
T04
X171888Y89700
X171888Y79700
X171888Y26575
X171888Y16575
X152200Y20013
X142200Y20013
T05
X21263Y20170
X21263Y39855
X21263Y65170
X21263Y84855
M30
